<svg width="75" height="75" viewBox="0 0 75 75" fill="none" xmlns="http://www.w3.org/2000/svg">
<g clip-path="url(#clip0_8_108)">
<rect width="75" height="75" fill="#183657"/>
<path d="M42.0005 48C41.1506 48.8499 40 50.5311 40.3656 52M43.5 57C43.5 56.5 44.5005 55.5 41.5005 53.5C40.8488 53.0655 40.5019 52.5475 40.3656 52M40.3656 52C39.4104 52.8333 38 53 37.5 56C37.3333 57 35.5 58 34 59" stroke="#FFF0E5" stroke-width="1" stroke-linecap="round"/>
<path d="M17 42.5C17.5 43.5 21.2 43 18 41" stroke="#FFF0E5" stroke-width="0.8" stroke-linecap="round"/>
<path d="M47.5 40.5C46.6666 40.3333 44.8001 40.8 44.0001 42C43.0001 43.5 42.0001 44 38.5001 44C35.0001 44 31.9996 43.5001 32.9996 45.0001C33.9996 46.5001 34.5 48.0001 34 49.0001C33.5 50.0001 34.5 53.0001 35.5 53.0001C36.5 53.0001 36 51.5001 39.5 52.5001" stroke="#FFF0E5" stroke-width="0.8" stroke-linecap="round"/>
<path d="M56.5005 30.9999C56.5005 30.9999 56.5004 30.9999 56.5005 30.9999ZM56.5005 30.9999C57.5005 31.5 59.7005 30 60.5005 31.9999M56.5005 30.9999C55.7005 30.5999 55.8338 29.8333 56.0005 29.5" stroke="#FFF0E5" stroke-width="0.8" stroke-linecap="round"/>
<path d="M59.5 31C60.5 28.5 62 31 62.5 30.5C64.2677 28.7322 65 28.5 65 27.5" stroke="#FFF0E5" stroke-width="0.8" stroke-linecap="round"/>
<path d="M62 36C61.5 34 64 30.5 59.4995 32.5C58.5 33 58.3331 33.1668 57.9998 33.5001C56.3331 36.0001 53.9995 40.3001 57.9995 39.5001" stroke="#FFF0E5" stroke-width="0.8" stroke-linecap="round"/>
<path d="M58.7975 0C56.6308 5.33333 53.8 13.3 69 14.5" stroke="#FFF0E5" stroke-width="0.8" stroke-linecap="round"/>
<path d="M69 14.5L60.5 0M72 13L75.5 20" stroke="#FFF0E5" stroke-width="0.8" stroke-linecap="round"/>
<path d="M72 13V31" stroke="#FFF0E5" stroke-width="0.8" stroke-linecap="round"/>
<path d="M72 31L75.5 33" stroke="#FFF0E5" stroke-width="0.8" stroke-linecap="round"/>
<path d="M57 7.5C56.1667 8.83333 57 11 59.5 10" stroke="#FFF0E5" stroke-width="0.8" stroke-linecap="round"/>
<path d="M59.4996 10C58.4996 10.5 56.2 12.1 57 12.5" stroke="#FFF0E5" stroke-width="0.8" stroke-linecap="round"/>
<path d="M56.0003 9.5C56.167 11 56.0003 14.3 54.0003 15.5C51.9151 16.7511 50.5256 19.7416 49.8318 22.4402C49.5874 23.3909 49.1226 24.5612 50.0006 25V25V25C50.6621 25.3306 50.1219 26.4489 50.8016 26.7402C50.9908 26.8213 51.2211 26.907 51.5 27" stroke="#FFF0E5" stroke-width="0.8" stroke-linecap="round"/>
<path d="M56.5 25C56.4133 24.9934 56.3237 24.9894 56.2315 24.9885C54.0177 24.966 50.2816 26.6647 49 33.5C47.5 41.5 48 40 46 43.5" stroke="#FFF0E5" stroke-width="0.8" stroke-linecap="round"/>
<path d="M56 9.49999C56 8.66666 56.2 7.09999 57 7.49999" stroke="#FFF0E5" stroke-width="0.8" stroke-linecap="round"/>
<path d="M58 12C58.5 14 56.5 13 56 15.5001C55.8333 16 54.952 17.3 54.952 18.5C54.952 20.5 53.6187 21.3333 52.952 22M51.5 22C52.5 21.8333 54.4 21.9 54 23.5" stroke="#FFF0E5" stroke-width="0.8" stroke-linecap="round"/>
<path d="M52.5 23.9999C54.6667 23.1666 58.5 23.5 56 29.4999" stroke="#FFF0E5" stroke-width="0.8" stroke-linecap="round"/>
<path d="M60 35.5C61 35.3333 63.5 36.5 62.5 38.4999" stroke="#FFF0E5" stroke-width="0.8" stroke-linecap="round"/>
<path d="M60.5 39.5C63.3333 38.3333 69 35 69 31C69 29.5 71 29.5 71.5 28.5" stroke="#FFF0E5" stroke-width="0.8" stroke-linecap="round"/>
<path d="M71 30C69.6667 31.3333 70.5 32 71.5006 31.5" stroke="#FFF0E5" stroke-width="0.8" stroke-linecap="round"/>
<path d="M72.5003 32C71.8337 32.3333 71.0003 32 70.5003 34C70.3337 34.5 69.7159 35.1422 69.0003 35.5C68.0003 36 67.5003 38 67.0003 39C66.5003 40 65.5 42 63 42.5C62.5234 42.5953 62.3001 42.6999 62 43C61.2 43.8 60.1673 42.8333 60.0006 42C59.8679 41.3364 60 40.5 59 40C57.9267 39.4633 57.5004 38 57.5 37" stroke="#FFF0E5" stroke-width="0.8" stroke-linecap="round"/>
<path d="M57 27C57.4678 26.8441 58.3733 26.2796 58.488 25.2248M58.488 25.2248C58.4959 25.1522 58.5 25.0773 58.5 25C58.5 23.5 58.5 24 57.5 23C57.9 22.6 59 22 58 21.5L59 21V20L59.5 20.5V19.5H60H60.5H61V19H61.5L62 18.5V19L62.5 18.5V19H63L63.5 18.5L64 19.5L64.5 18.5L65 20L65.5 19.5V20C65.6667 19.8333 66 19.6 66 20C66 20.4 65.6667 20.8333 65.5 21C66 21.1667 66.9 21.5 66.5 21.5C66.1 21.5 66 21.8333 66 22C66.5 22.1667 67.4 22.5 67 22.5C66.6 22.5 66.5 22.8333 66.5 23L67.5 23.5L67 24.5L67.6525 25.2248L67.5 27.5L67 27V26L66.5 26.5V26L66 26.5L65.5 29L65 27.5V26.5L64 27.5L63.5 26L63 26.5V25.5L62 26V25H61C60.8333 25.5 60.5 26.4 60.5 26C60.5 25.6 60.5 25.1667 60.5 25L59 27.5L58.488 25.2248Z" stroke="#FFF0E5" stroke-width="0.8" stroke-linecap="round"/>
<path d="M59.4995 41C59.4995 42.3333 59.4998 44 57.4998 45.5C56.6054 46.1708 55.4998 48 54.9998 49C54.4998 50 52.8995 51.8 52.4995 51C51.9995 50 53.4998 49 47.9998 49C44.9998 48.5 48.3372 47.112 43.4998 45.5C41.9993 45 43 44 42.5 43.5" stroke="#FFF0E5" stroke-width="0.8" stroke-linecap="round"/>
<path d="M33 45C32.3333 44.8333 31.3 45.1 30.5 45.5C29.4999 46 29 45.5 28.5 44.5C28.1667 44 27.1 43 25.5 43C23.5 43 23.5 43.5 20 42" stroke="#FFF0E5" stroke-width="0.8" stroke-linecap="round"/>
<path d="M33.5 50.0001C32.3333 50.0001 31 50.0001 29.5 50.5C29 50.6666 29 48.5 27.5 48.5M29 47C27.8333 47.6667 25.5396 48.0396 23.5 46C21.5 44 22 45 19.5 43.5" stroke="#FFF0E5" stroke-width="0.8" stroke-linecap="round"/>
<path d="M15.5 39.5C12.7058 38.1028 11.3333 38.8334 10.5 40C10.5 40 12 42.0001 13 42.0001C13.2032 42.0001 13.3677 41.9356 13.5 41.8311C13.8887 41.5244 14 40.8731 14 40.5C14.5 40.5 16.5 40.0001 15.5 39.5Z" stroke="#FFF0E5" stroke-width="0.8" stroke-linecap="round"/>
<path d="M13.5 42C14 42 15.1 42.1 15.5 42.5C16 43 19.5 42 17.5 40.5C17.2694 40.3271 16 40 15.5 39.5" stroke="#FFF0E5" stroke-width="0.8" stroke-linecap="round"/>
<path d="M52.5004 51C52.0004 51.3333 51.5005 51.4343 51.5 52C51.4996 52.5 51.6181 53 50.5004 53C49.5 53 49.5 53.5 49 54.5C48.7764 54.9472 48.5154 55 48 55C47.5 55 47.4472 55.1056 47 56C46.5 57 42.5 61.5 40.5 61.5C38 61.5 37 63.5 36.5 64C35.7094 64.7906 35 65.5 33 64C31.8462 63.1347 31 63 30 63C29.5 63 27.7 63.3 26.5 62.5C25 61.5 22 61 19.5 61.5" stroke="#FFF0E5" stroke-width="0.8" stroke-linecap="round"/>
<path d="M36.0002 60.5C34.5002 59.3334 30.8943 57.8687 27.5002 59C24.5002 60 22 59 21 58.5M21 58.5C20.6957 58.4917 18.8999 57.9006 18.5 61.5C18.431 62.1207 18.3 63 17.5 63C16.7 63 14.6667 64.6667 14.5 65C14.1667 65.5 10.7115 64.8946 12.5003 64C14.4999 63 16.5002 58.5002 16.5002 57.5002C16.6668 56.6668 18.2999 55.1001 19.4999 57.5001C20 58.5 20.5 58.5 21 58.5Z" stroke="#FFF0E5" stroke-width="0.8" stroke-linecap="round"/>
<path d="M37.5 56.5C38.1667 56.6667 39.7 57.9 40.5 61.5" stroke="#FFF0E5" stroke-width="0.8" stroke-linecap="round"/>
<path d="M19.5 57.5C19.5 58 18 59.5 16.5 59" stroke="#FFF0E5" stroke-width="0.8" stroke-linecap="round"/>
<path d="M16.9999 63C16.6666 61.3333 16.3999 58.9 17.9999 62.5" stroke="#FFF0E5" stroke-width="0.8" stroke-linecap="round"/>
</g>
<defs>
<clipPath id="clip0_8_108">
<rect width="75" height="75" fill="white"/>
</clipPath>
</defs>
</svg>
