<svg width="240" height="242" viewBox="0 0 240 242" fill="none" xmlns="http://www.w3.org/2000/svg">
<path fill-rule="evenodd" clip-rule="evenodd" d="M94.9856 15.5571C94.9856 34.6504 78.9863 50.1286 59.2501 50.1286C47.5641 50.1286 37.1881 44.7019 30.668 36.3114C16.5293 50.2679 5.85718 67.5237 0 86.7743C17.3332 89.1576 30.6618 103.573 30.6618 121C30.6618 138.427 17.3332 152.842 0 155.226C5.85718 174.477 16.5293 191.731 30.668 205.688C37.1881 197.297 47.5641 191.871 59.2501 191.871C78.9863 191.871 94.9856 207.349 94.9856 226.443C94.9856 230.899 94.1138 235.16 92.5263 239.072C101.367 240.989 110.562 242 120 242C130.841 242 141.36 240.666 151.391 238.157C149.586 234.024 148.589 229.482 148.589 224.714C148.589 205.62 164.588 190.143 184.324 190.143C195.517 190.143 205.506 195.119 212.058 202.912C224.845 189.469 234.525 173.218 240 155.226C222.668 152.842 209.339 138.427 209.339 121C209.339 103.573 222.668 89.1578 240 86.7743C234.143 67.5237 223.472 50.2679 209.332 36.3114C202.812 44.7019 192.436 50.1286 180.751 50.1286C161.014 50.1286 145.015 34.6504 145.015 15.5571C145.015 11.1003 145.887 6.84048 147.475 2.92849C138.634 1.01147 129.439 0 120 0C110.562 0 101.367 1.01147 92.5263 2.92848C94.1138 6.84048 94.9856 11.1003 94.9856 15.5571ZM137.868 121C137.868 130.547 129.868 138.286 120 138.286C110.132 138.286 102.133 130.547 102.133 121C102.133 111.453 110.132 103.714 120 103.714C129.868 103.714 137.868 111.453 137.868 121ZM120 86.4286C134.803 86.4286 146.802 74.82 146.802 60.5C146.802 46.18 134.803 34.5714 120 34.5714C105.198 34.5714 93.1988 46.18 93.1988 60.5C93.1988 74.82 105.198 86.4286 120 86.4286ZM120 207.429C134.802 207.429 146.802 195.819 146.802 181.5C146.802 167.18 134.802 155.571 120 155.571C105.198 155.571 93.1988 167.18 93.1988 181.5C93.1988 195.819 105.198 207.429 120 207.429ZM200.405 89.8857C200.405 104.206 188.405 115.814 173.604 115.814C158.801 115.814 146.802 104.206 146.802 89.8857C146.802 75.5657 158.801 63.9571 173.604 63.9571C188.405 63.9571 200.405 75.5657 200.405 89.8857ZM173.604 178.043C188.405 178.043 200.405 166.434 200.405 152.114C200.405 137.794 188.405 126.186 173.604 126.186C158.801 126.186 146.802 137.794 146.802 152.114C146.802 166.434 158.801 178.043 173.604 178.043ZM66.3972 115.814C81.1994 115.814 93.1988 104.206 93.1988 89.8857C93.1988 75.5657 81.1994 63.9571 66.3972 63.9571C51.5951 63.9571 39.5956 75.5657 39.5956 89.8857C39.5956 104.206 51.5951 115.814 66.3972 115.814ZM66.3972 178.043C81.1994 178.043 93.1988 166.434 93.1988 152.114C93.1988 137.794 81.1994 126.186 66.3972 126.186C51.5951 126.186 39.5956 137.794 39.5956 152.114C39.5956 166.434 51.5951 178.043 66.3972 178.043Z" fill="url(#paint0_linear_75_117723)"/>
<path d="M170.041 144.909C174.438 143.038 182.5 142.5 183.978 154.301C180 146 177.5 144.772 170.041 144.909Z" fill="#E3E9F4"/>
<path d="M62.0414 144.909C66.4383 143.038 74.5 142.5 75.9777 154.301C72 146 69.5001 144.772 62.0414 144.909Z" fill="#E3E9F4"/>
<defs>
<linearGradient id="paint0_linear_75_117723" x1="218.917" y1="11.2357" x2="33.8938" y2="225.617" gradientUnits="userSpaceOnUse">
<stop stop-color="#1E344D"/>
<stop offset="1" stop-color="#7BA3F0"/>
</linearGradient>
</defs>
</svg>
