<svg width="75" height="75" viewBox="0 0 75 75" fill="none" xmlns="http://www.w3.org/2000/svg">
<rect width="75" height="75" rx="4" fill="#40560A"/>
<path d="M36 32C35.5 32.3333 34.5 33.2 34.5 34C34.5 35 34.5 36 33.5 36.5C32.7 36.9 32.8333 38.6667 33 39.5C33 40.1667 32.6789 41.1422 32.5 41.5C32 42.5 33 46 35 44C35.3333 43.5 36.6 42.5 37 42.5" stroke="#EDFFC8" stroke-width="0.8" stroke-linecap="round"/>
<path d="M48 16.5C48 17.5 47.5 19.5 47.5 20C47.5 20.5 47.3333 21.1667 47.5 21.5C47.8333 22.1667 48 23 47.5 24" stroke="#EDFFC8" stroke-width="0.8" stroke-linecap="round"/>
<path d="M62 33.5C62.5 34.3333 63.5 34.5 63 33C62.5 32.5 62.5 32.1667 62.5 32C62.5 31.5 62.6325 31.1324 62 30.5C61 29.5 59.7236 27.9472 59.5 27.5C59 26.5 58.5 26 57.5 25.5C57.0528 25.2764 56.1667 24.5 56 24L54 20.5C53.6667 19.6667 52.7 17.7 51.5 16.5C51.2884 16.2884 50.5 16 50.5 15.5C50.5 15.1909 50.3 14.4 49.5 14C48.7 13.6 48.2274 12.7558 48 12.5C46.6667 11 43.5 9.89998 41.5 17.5" stroke="#EDFFC8" stroke-width="0.8" stroke-linecap="round"/>
<path d="M62 33.5C61.5 33 60.5 32.8 60.5 32C60.3333 31.5 59.7 30.6 58.5 31C57 31.5 54.5 31 55 29C55.4 27.4 54.6638 27.2457 54.5 27C53.8333 26 52.5 24 51.5 24C50.5 24 48 21.5 48.5 20.5" stroke="#EDFFC8" stroke-width="0.8" stroke-linecap="round"/>
<path d="M41.5 32C41.5 29.6 40.8333 27.6667 40.5 27C39.8333 25.3333 39 23 40 21C40.645 19.7101 39.5 17.1429 40 17.5C41.5 17.5 44.6 20.9 45 22.5C45.8 24.1 47.6667 24.5 48.5 24.5C49 24.5 49.6 24.2 48 23" stroke="#EDFFC8" stroke-width="0.8" stroke-linecap="round"/>
<path d="M49 24.5C48.3333 25.5 47.1 28 47.5 30C47.9 32 47 33.1667 46.5 33.5M42 23C43 24.8333 44.9 29.1 44.5 31.5C44.1 33.9 47 35.8333 48.5 36.5C48.7941 36.6307 49 37 49 37" stroke="#EDFFC8" stroke-width="0.8" stroke-linecap="round"/>
<path d="M49 46C49 46.5 49.3 47.8 50.5 49" stroke="#EDFFC8" stroke-width="0.8" stroke-linecap="round"/>
<path d="M54.5 47C53.8333 47.8333 52.6 49.9 53 51.5C53 52 51.1667 52.5 51 52.5C50.5 52.1667 49.5 51.2 49.5 50C49.5 49.2 48.8333 48.6667 48.5 48.5C48 48.1667 47.3 47.4 48.5 47" stroke="#EDFFC8" stroke-width="0.8" stroke-linecap="round"/>
<path d="M53 49C52.3333 49.6667 50.7 50.7 49.5 49.5" stroke="#EDFFC8" stroke-width="0.8" stroke-linecap="round"/>
<path d="M40 26C39.1667 26.5 37.5 28 37.5 30C37.5 32.5 37.5 34 36.5 34" stroke="#EDFFC8" stroke-width="0.8" stroke-linecap="round"/>
<path d="M37.5 30C36.8333 29.5 35.6 29 36 31C36.4 33 36.1667 36.1667 36 37.5C35.6667 39.6667 36.2 43.8 41 43C43 42 44.5 42.5 45 43" stroke="#EDFFC8" stroke-width="0.8" stroke-linecap="round"/>
<path d="M19.5 40.5C19.6667 41 19.5 41.5 19 42C18.6 42.8 19.5 43 20 43C20.3333 43 21.1 43.1 21.5 43.5C21.9 43.9 23 43.5 23 43C23.1667 41.8333 23.1 39.9 21.5 41.5" stroke="#EDFFC8" stroke-width="0.8" stroke-linecap="round"/>
<path d="M19.5 40.5C19.5 40.5 19.6 40 20 40C20.5 40 21.5 40.5 21.5 41.5" stroke="#EDFFC8" stroke-width="0.8" stroke-linecap="round"/>
<path d="M20 40C20 39.8333 20.1 39.4 20.5 39C20.9 38.6 21 37.1667 21 36.5C21.1667 34.1667 22.4 29.7 26 30.5C27 35.5 24.5 35.5 24 36C22.5 37 22 39.5 22.5 40" stroke="#EDFFC8" stroke-width="0.8" stroke-linecap="round"/>
<path d="M26 35C26.6667 35 28.7 34.7 29.5 33.5C30.5 32 33 31 35.5 30.5" stroke="#EDFFC8" stroke-width="0.8" stroke-linecap="round"/>
<path d="M21 36C20.1667 36.8333 19.5 37.75 18 38.5C17 39 16.5 41 18 43C18.3333 43.3333 19 44.3 19 45.5C19 46.5 19.1333 46.8167 19.5 47C20.1667 47.3333 21.5 48.1 21.5 50.5" stroke="#EDFFC8" stroke-width="0.8" stroke-linecap="round"/>
<path d="M14.7083 52H13.625C13.8056 52.4 14.275 53.2 14.7083 53.2C15.1417 53.2 13.8056 53.2 13.0833 53.2L13.625 53.8L12 54.4C12.7222 54.8 14.1667 55.48 14.1667 55C13.3 55.48 12.3611 55.6 12 55.6C12.3611 55.2 13.7 54.04 15 55C14.1333 55 13.2639 56.4 13.0833 56.8L14.7083 56.2L14.1667 57.4L15.25 56.8L15.7917 58L16.3333 56.8L17.4167 58V57.4L17.9583 58L18.5 57.4V58L19.0417 57.4L19.5833 58V56.8L20.6667 57.4V56.8C21.0278 56.8 21.75 56.92 21.75 57.4C21.75 58 20.6667 56.2 21.75 56.2C22.6167 56.2 22.8333 57 22.8333 57.4C22.6528 57.2 22.4 56.68 22.8333 56.2C23.2667 55.72 23.7361 56 23.9167 56.2V55H25C24.6389 54.4 24.025 53.2 24.4583 53.2" stroke="#EDFFC8" stroke-width="0.8" stroke-linecap="round"/>
<path d="M19.5 47C19.1667 47.5 18.2 48.4 17 48C15.8 47.6 15.1667 48.5 15 49C15 49.3333 14.8 50.1 14 50.5C13.2 50.9 14.5 51 15 51.5C15.3333 51.6667 15.9 52.3 15.5 53.5C15.9 54.7 17 55 17.5 55C17.6667 54.3333 18.2 53.2 19 54C19.8 54.8 20 54 20 53.5C20.5 52 22.9 49.4 24.5 53C27.3 55 30 54.5 31 54C31.8333 53.6667 33.9 53.2 35.5 54" stroke="#EDFFC8" stroke-width="0.8" stroke-linecap="round"/>
<path d="M52.5 40.5C53 40.5 54 41.6 54 42C54 42.4 54.6667 42.8333 55 43C55.3333 43.1667 55.5 43.4343 55.5 44C55.5 44.5 55.4279 44.7838 55.5 45C55.6667 45.5 55.4 46.4 53 46" stroke="#EDFFC8" stroke-width="0.8" stroke-linecap="round"/>
<path d="M50.5 46C50.3333 46 49.9 45.9 49.5 45.5C49 45 49.0812 45 47.5 45C46 45 44.6667 41.8333 44 40C43.8333 39.3333 43.8 37.9 45 37.5C45.2934 37.4022 46 37.875 46.5 37.5C47.1667 37 48.8 36.4 50 38C51.5 40 51.5 41 52.5 41.5" stroke="#EDFFC8" stroke-width="0.8" stroke-linecap="round"/>
<path d="M33.5 45C34 46.5 37.1 46.5 37.5 42.5" stroke="#EDFFC8" stroke-width="0.8" stroke-linecap="round"/>
<path d="M33.5 46.5C32 47 30.1 49.5 32.5 49.5C32.8333 49.5 33.6 49.6 34 50C34.5 50.5 35.5 51 36.5 50.5C37 50 38 50.3333 38.5 50.5C38.8333 50.6667 39.6 50.9 40 50.5C40.5 50 41 50 41.5 50" stroke="#EDFFC8" stroke-width="0.8" stroke-linecap="round"/>
<path d="M41 51C41.3333 51 42.1 50.9 42.5 50.5C43 50 45 50 45.5 50.5C46 51 50 51 49.5 50.5" stroke="#EDFFC8" stroke-width="0.8" stroke-linecap="round"/>
<path d="M49.5 52.5C48.8333 52.1667 46.5 52 45.5 53C44.5 54 42.5 53.8333 41.5 53.5C41.1667 53.3333 40.2 53.2 39 54C37.8 54.8 36.8333 54 36.5 53.5C36.3103 53.2155 35.9 53 35.5 53" stroke="#EDFFC8" stroke-width="0.8" stroke-linecap="round"/>
</svg>
