<svg width="75" height="75" viewBox="0 0 75 75" fill="none" xmlns="http://www.w3.org/2000/svg">
<g clip-path="url(#clip0_1_4)">
<rect width="75" height="75" fill="#270202"/>
<path d="M40.5 44C41.4798 44.9798 42.8436 46.8235 40.6409 46.5215M40.5 46.5C40.5485 46.5081 40.5955 46.5152 40.6409 46.5215M40.6409 46.5215C42 48 43.5 49 42.5 50.5" stroke="#FFC6C6" stroke-width="0.8" stroke-linecap="round"/>
<path d="M17.5 43.5C17.5 46.5 17.7 48.3 20.5 49.5C20.6667 49.5 21.1 49.8 21.5 51C22 52.5 25 55.5 29.5 57C31.5 58.2 31.5 58.5 31.5 58.5C32 59.5 34.5 61.2 36.5 62C38.9 62.8 41.1667 64.6667 42 65.5" stroke="#FFC6C6" stroke-width="0.8" stroke-linecap="round"/>
<path d="M30 33.9999C30.8333 32.3333 33.3 29.2999 36.5 30.4999M25 30.5C25.1667 31 25.7 32.1 26.5 32.5C27.3 32.9 27.5 33 27.5 33.9999C27.5 34.3333 27.8 35 29 35" stroke="#FFC6C6" stroke-width="0.8" stroke-linecap="round"/>
<path d="M35.5 7L36 6.5M36.5 7.5L35.5 8H36.5" stroke="#FFC6C6" stroke-width="0.8" stroke-linecap="round"/>
<path d="M38.5 12.5C39.8333 14.5 41.4116 18.3536 41 20C40.5 22 44 25.5 44.5 25.5" stroke="#FFC6C6" stroke-width="0.8" stroke-linecap="round"/>
<path d="M42.5 26C40 25.6667 35.7 27.2001 36.5 34.0001C38.5 35.5 39.5 37.5 39 41" stroke="#FFC6C6" stroke-width="0.8" stroke-linecap="round"/>
<path d="M42 11.5C42.3333 11.6667 43 12.3 43 13.5C43 15 46 18 46.5 19C47 20 49 22 47.5 26.5" stroke="#FFC6C6" stroke-width="0.8" stroke-linecap="round"/>
<path d="M43 24.5C42.6667 25.6667 42.6 28.2 45 29" stroke="#FFC6C6" stroke-width="0.8" stroke-linecap="round"/>
<path d="M42.5 29C42.1667 28.5 41.8 27.4 43 27" stroke="#FFC6C6" stroke-width="0.8" stroke-linecap="round"/>
<path d="M39.5 11.5C39.5 11.5 38.5 11 38.5 12C38.5 13 37 12 37 11C37 10 36.7906 9.79057 36 9C35 8 35.5 7 36 7" stroke="#FFC6C6" stroke-width="0.8" stroke-linecap="round"/>
<path d="M37 8.875C37 8.075 36 6.875 36 6.375C36.5 4.375 41 4.875 41 5.875C41 8.675 39.6667 10.0417 39 10.375C38.3333 10.2083 37 9.675 37 8.875Z" stroke="#FFC6C6" stroke-width="0.8" stroke-linecap="round"/>
<path d="M41 6C41.1667 6.66667 41.6 8.1 42 8.5C42.5 9 43 11 40.5 10.5" stroke="#FFC6C6" stroke-width="0.8" stroke-linecap="round"/>
<path d="M-1.5 13.5L35.5 7.5" stroke="#FFC6C6" stroke-width="1.5" stroke-linecap="round"/>
<path d="M75.5 1.5L41.5 6.5" stroke="#FFC6C6" stroke-width="1.5" stroke-linecap="round"/>
<path d="M39.5 32.9999C43.1 32.5999 44.3333 33.1665 44.5 33.4999C44.5 35.4999 41.5 37.5 39 37L38.5 36.5" stroke="#FFC6C6" stroke-width="0.8" stroke-linecap="round"/>
<path d="M48 24C48.6667 25.1667 49.3944 27.2111 48.5 29C48 30 48 30.5 46.5 31.5C46.1714 31.719 44.5 32.5 44.5 33.5" stroke="#FFC6C6" stroke-width="0.8" stroke-linecap="round"/>
<path d="M20.5 33.5C19.5 33.1667 17.2 31.8 16 29C17 29.5 17 29.5 17 29L16 26.5L17 27L16.5 24.5L17.5 25.5C17.5 24.1667 17.9 21.5 19.5 21.5C19.1 22.3 19.5 23 20 23.5C20 22.5 20.6 20.3 23 19.5C22.2 20.7 22.3333 21.3333 22.5 21.5C23 21 24.3 20 25.5 20C24.5 21 23.5 22.5 24 22C24.5 21.5 26 21 26.5 21.5C25.5 21.5976 25.5 22 25 22" stroke="#FFC6C6" stroke-width="0.8" stroke-linecap="round"/>
<path d="M24 23C24.3333 23 25.2 23.1 26 23.5C26.8 23.1 27.1667 22.6667 27.5 22.5C27.8333 22.5 28 23 28 24C28.8 25.6 29.5 26 29.5 26C29.5 26 30.9 27.2 30.5 28C30 29 27 32.5 30 34C30.8 34.8 30.6667 35.1667 30.5 35.5" stroke="#FFC6C6" stroke-width="0.8" stroke-linecap="round"/>
<path d="M26 35.5C26.6667 35.8333 28.3 36.4 29.5 36C30.7 35.6 32.5 36.5 32.5 36.5C32.8333 36.6667 33.6 37.1 34 37.5C34.5 38 37.5 40.5 34.5 43C33.5 43.5 32.6667 44 32.5 44.5" stroke="#FFC6C6" stroke-width="0.8" stroke-linecap="round"/>
<path d="M31.5446 41C31.8883 41.1667 32.8248 42.1 32 42.5C30.9689 42.25 31.2009 41 31.5446 41Z" stroke="#FFC6C6" stroke-width="0.55" stroke-linecap="round"/>
<path d="M25 51C25 50.5 24.1227 49.6557 23.5 49.5C21.5 49 19.5 46.5 19.5 44.5C19.5 43.5 18.5 42.8125 18 42.5C16.6667 41.6667 15.5 39.4999 17.5 37C18 35.9999 18 35 20.5 34.5C22.5 34 26.9 34.1 26.5 40.5C26.5 41.4999 27.267 41.9223 27.5 41.9999C29 42.4999 32 45.4999 32 48.9999C32 49.9999 33.8333 51.1666 34.5 51.4999C35.5 51.9999 37.2624 53.5248 38 54.9999C39 56.9999 45 62.4999 47 63.4999C49 63.8999 51.1667 64.9999 52 65.4999C52.3333 65.8333 52.1 67.0999 48.5 69.4999C47.3 69.8999 45.5 68.4999 45 67.9999C44.5 67.4999 44.3 65.8999 43.5 65.4999" stroke="#FFC6C6" stroke-width="0.8" stroke-linecap="round"/>
<path d="M28.5 50C28.8333 50.6667 29.8 52 31 52C32.2 51.6 32.8333 52.5 33 53C33.1264 53.3791 33.3 54.2 34.5 55" stroke="#FFC6C6" stroke-width="0.8" stroke-linecap="round"/>
<path d="M30 54.5C30.5 55.3333 31.9 57 33.5 57C34.7398 57 35.6667 58.5 36 59" stroke="#FFC6C6" stroke-width="0.8" stroke-linecap="round"/>
<path d="M47.5 69.5C48.5 71 50.2 73.1 49 69.5C51 71.5 51.5 71 50 68.5C53 71 52 68.5 51 67.5C53.5 69 53.5 68.5 52 65.5" stroke="#FFC6C6" stroke-width="0.8" stroke-linecap="round"/>
<path d="M42.5 68C42.3333 70.5 42.4 75.5 44 75.5" stroke="#FFC6C6" stroke-width="0.8" stroke-linecap="round"/>
<path d="M31.5 60C32.1667 61.1667 33.4 64 33 66C32.5 68.5 35.1056 71.0528 36 71.5C37 72 38.6667 73.8333 39.5 75" stroke="#FFC6C6" stroke-width="0.8" stroke-linecap="round"/>
<path d="M54.5 61.5001C56.6667 64.5001 61.1 70.8001 61.5 72.0001C61.9 73.2001 63.3333 74.5001 64 75.0001M54.5 71.5001C55.8333 72.0001 58.7 73.6001 59.5 76.0001M40 57.0001C41 56.6668 43 56 45 56.5001C46.1772 56.7944 46.5 55.5 47 55.5002C47.5 55.1669 50.8278 57.828 51.5 58.5002C52.5 59.5002 53.3333 60.8335 53.5 61.5002C53.875 63.0002 52.5 64.0002 53.5 65.5002" stroke="#FFC6C6" stroke-width="0.8" stroke-linecap="round"/>
<path d="M41.5 59C43.5 58.8333 47.5 58 47.5 56" stroke="#FFC6C6" stroke-width="0.8" stroke-linecap="round"/>
<path d="M37 41.5C37.8333 42.3333 39.1 44 37.5 44C37 44 36.5 44.5 36.5 45C36.5 45.5 36 46 35.5 46C35 46 33.8333 46.1667 33.5 46.5" stroke="#FFC6C6" stroke-width="0.8" stroke-linecap="round"/>
<path d="M38 41C40 41.5 41.5 44 39 43" stroke="#FFC6C6" stroke-width="0.8" stroke-linecap="round"/>
<path d="M39 44.5C38.8333 45 38.6 46.1 39 46.5C39.5 47 40 48.5 39 48C38.5 47.8333 37.5 47.5 37.5 48.5C37.5 49.3 36.8333 49.1667 36.5 49C36.1667 48.8333 35.5 49 35.5 49.5" stroke="#FFC6C6" stroke-width="0.8" stroke-linecap="round"/>
<path d="M37 51.5C37.5 52 38.7 52.8 39.5 52C40.3 51.2 40.8333 51.3334 41 51.5M42 51.0001C42.1667 50.6667 42.7 50.2001 43.5 51.0001C44 53 45 55 45.5 55.5" stroke="#FFC6C6" stroke-width="0.8" stroke-linecap="round"/>
</g>
<defs>
<clipPath id="clip0_1_4">
<rect width="75" height="75" fill="white"/>
</clipPath>
</defs>
</svg>
